<svg width="120" height="34" viewBox="0 0 120 34" fill="none" xmlns="http://www.w3.org/2000/svg">
<path d="M18.9746 21.5923C18.9057 23.2006 19.0985 25.1805 18.8727 27.1505C18.6137 29.4094 17.4844 31.0583 15.4461 32.0104C13.0222 33.1434 10.4427 33.2331 7.84111 33.0536C6.39641 32.9541 4.98476 32.675 3.664 32.0272C0.905428 30.6742 -0.168804 28.3592 0.0212528 25.3656C0.194783 22.6384 1.59817 20.7721 4.07304 19.7415C5.68438 19.0713 7.38388 18.8623 9.11642 18.8567C10.3298 18.8525 11.5458 18.8217 12.7206 18.4571C13.8802 18.0967 14.3678 17.4125 14.3168 16.2613C14.2741 15.3191 13.8417 14.7498 12.8143 14.4231C11.236 13.9211 9.61084 13.9281 7.98297 14.0627C7.25304 14.123 6.52724 14.2226 5.8469 14.531C5.1996 14.8255 4.72033 15.2518 4.67075 16.0201C4.64458 16.4128 4.44764 16.5025 4.08681 16.4955C2.94096 16.4744 1.79374 16.4478 0.650643 16.5039C0.0460428 16.5333 -0.0310816 16.2669 0.0129895 15.7762C0.215441 13.478 1.25249 11.7225 3.28251 10.6288C5.46265 9.45241 7.83423 9.31921 10.232 9.36969C11.5651 9.39773 12.8817 9.55337 14.1612 9.94878C17.388 10.9471 18.9388 13.049 18.9732 16.4801C18.9883 18.0617 18.9759 19.6433 18.9759 21.5923H18.9746ZM14.3113 22.8893C12.1615 23.6185 9.98269 23.5596 7.8177 23.6535C7.1346 23.683 6.45838 23.8274 5.8166 24.0924C5.02883 24.4177 4.65285 25.015 4.63219 25.8731C4.61153 26.7537 4.85117 27.4632 5.7078 27.8642C6.49281 28.233 7.31915 28.3508 8.16751 28.4111C9.70174 28.519 11.2277 28.5078 12.7206 28.0787C13.569 27.8348 14.2466 27.3398 14.2975 26.3737C14.3581 25.2422 14.3113 24.1036 14.3113 22.8907V22.8893Z" fill="white"/>
<path d="M55.5811 21.2206C55.5811 22.7784 55.5811 24.3376 55.5811 25.8954C55.5811 29.5017 53.9436 31.7059 50.4813 32.5921C47.4294 33.3731 44.3513 33.3984 41.331 32.4309C38.2378 31.4409 36.5934 29.1077 36.6209 25.9276C36.6485 22.7251 38.3783 20.4157 41.4825 19.4538C42.9617 18.9953 44.4821 18.8509 46.0246 18.8509C47.1457 18.8509 48.2709 18.8004 49.352 18.4541C50.5171 18.0811 50.9675 17.495 50.9592 16.4112C50.9509 15.3217 50.513 14.7117 49.3313 14.3906C47.2145 13.8143 45.0743 13.8354 42.9493 14.3626C42.0458 14.5869 41.3558 15.0931 41.2828 16.1391C41.2636 16.4196 41.1561 16.4897 40.9041 16.4883C39.6205 16.4813 38.3383 16.4714 37.0548 16.4925C36.5893 16.4995 36.6141 16.2527 36.6402 15.9134C36.8441 13.1567 38.1965 11.1923 40.7361 10.2557C44.3182 8.93622 47.9803 8.96146 51.5679 10.2388C54.2315 11.1881 55.5743 13.3278 55.5784 16.1924C55.5811 17.8666 55.5784 19.5422 55.5784 21.2164L55.5811 21.2206ZM50.9606 24.7989C50.9606 24.3109 50.9578 23.8216 50.9606 23.3336C50.9633 23.0574 50.9289 22.8905 50.5722 23.0013C48.7983 23.5496 46.968 23.5958 45.1335 23.6155C44.259 23.6253 43.3969 23.7445 42.5733 24.0557C41.6795 24.3937 41.2925 24.9601 41.276 25.8968C41.2539 27.1139 41.7194 27.7757 42.9479 28.0982C44.9765 28.6324 47.0341 28.617 49.0669 28.1599C50.5722 27.8206 50.9592 27.2288 50.9606 25.6388C50.9606 25.3598 50.9606 25.0807 50.9606 24.8017V24.7989Z" fill="white"/>
<path d="M77.5532 16.5908C77.3467 16.5908 77.1387 16.5739 76.9349 16.5936C75.902 16.6917 75.0164 16.6006 74.3664 15.5476C73.9132 14.8128 73.0236 14.517 72.1945 14.3038C70.6162 13.8986 69.0241 13.8874 67.4293 14.2436C65.3759 14.7021 64.1405 15.9878 63.708 18.0574C63.2646 20.1775 63.2687 22.3088 63.7218 24.4261C64.1708 26.5237 65.4612 27.8053 67.5326 28.2427C69.1715 28.5891 70.8104 28.5779 72.4217 28.0815C73.4574 27.7632 74.3471 27.1939 74.9228 26.2377C75.1252 25.9025 75.3607 25.8324 75.7078 25.8366C76.9459 25.8521 78.184 25.8647 79.4208 25.8324C79.9427 25.8184 80.0942 25.9053 79.911 26.4704C78.8423 29.7585 76.709 31.887 73.3734 32.7002C70.8806 33.3074 68.3699 33.3046 65.8868 32.6764C62.4424 31.8056 60.276 29.5524 59.3726 26.0946C58.498 22.7463 58.4966 19.3671 59.4621 16.0397C60.5776 12.195 63.2549 10.117 67.0864 9.55051C69.6728 9.16772 72.2509 9.23362 74.7368 10.2081C77.4596 11.2752 79.093 13.3335 79.9441 16.1112C80.057 16.4786 80.0254 16.6118 79.6163 16.5978C78.9291 16.5739 78.2405 16.5908 77.5532 16.5908Z" fill="white"/>
<path d="M22.2951 20.2784C22.2951 16.4855 22.2896 12.6927 22.2951 8.90124C22.3033 4.44937 24.2865 1.8077 28.5118 0.639695C30.1576 0.185394 31.842 0.0339606 33.5428 0.000308707C34.0111 -0.00810427 34.1226 0.154547 34.113 0.59763C34.0868 1.73759 34.0827 2.87895 34.1144 4.01751C34.1268 4.48863 34.0193 4.65549 33.518 4.65549C32.1642 4.65269 30.8187 4.78449 29.5172 5.19813C27.713 5.77161 26.9335 6.91578 26.9611 8.84235C26.9666 9.29385 27.1195 9.37798 27.5202 9.37377C29.491 9.35554 31.4632 9.38499 33.4326 9.35274C33.9766 9.34432 34.1392 9.49716 34.1171 10.0496C34.0744 11.1419 34.0703 12.2384 34.1185 13.3293C34.1447 13.9056 33.9408 14.0149 33.423 14.0079C31.5211 13.9785 29.6177 14.0205 27.7158 13.9827C27.1319 13.9715 26.9528 14.092 26.9556 14.73C26.9845 20.6163 26.9611 26.504 26.9886 32.3903C26.9914 33.0227 26.822 33.1685 26.2312 33.1404C25.1335 33.09 24.0304 33.0984 22.9313 33.1376C22.4273 33.1559 22.2785 33.0283 22.2813 32.494C22.3061 28.4222 22.2951 24.3503 22.2951 20.2784Z" fill="white"/>
<g clip-path="url(#clip0_2233_24714)">
<path d="M120.001 10.297C119.83 11.0225 119.681 11.7534 119.486 12.4723C118.678 15.4465 117.275 18.153 115.675 20.7639C114.763 22.2511 113.777 23.6899 112.678 25.0486C112.522 25.2418 112.358 25.4284 112.149 25.6731C112.059 25.4448 112.111 25.2966 112.152 25.1507C112.86 22.6604 113.421 20.1395 113.48 17.5428C113.549 14.5521 113.141 11.6338 110.941 9.39707C108.491 6.90683 105.473 5.89054 102.011 6.85854C100.092 7.39522 98.7484 8.7704 97.6619 10.3947C97.5609 10.5451 97.4611 10.6954 97.3579 10.8436C97.3524 10.8513 97.3228 10.8414 97.2141 10.8293C97.4347 10.3321 97.6235 9.84595 97.8616 9.385C99.0689 7.04073 100.981 5.46251 103.411 4.53731C107.142 3.11604 111.015 2.68143 114.974 3.20933C116.487 3.41127 117.849 4.01819 118.854 5.2463C119.398 5.91139 119.7 6.68294 119.881 7.51046C119.903 7.60923 119.859 7.73764 120.002 7.78374V10.297H120.001Z" fill="white"/>
<path d="M103.011 32.0452C102.653 31.8038 102.219 31.8784 101.827 31.7555C99.8425 31.1376 98.2808 29.8886 96.921 28.4026C93.7382 24.9235 91.4433 20.8869 89.6599 16.5473C89.6182 16.4464 89.582 16.3443 89.5512 16.24C89.5424 16.2093 89.5611 16.1709 89.5732 16.0985C90.5258 16.9677 91.4422 17.8457 92.4025 18.6732C94.4801 20.4654 96.73 21.9877 99.3915 22.7933C102.134 23.623 104.745 23.4035 107.148 21.7265C109.124 20.3469 110.57 18.5964 110.956 16.1479C111.258 14.2338 110.747 12.4723 109.842 10.7712C110.101 10.6856 110.174 10.9095 110.28 11.0477C111.74 12.9618 112.447 15.1316 112.314 17.523C112.072 21.8209 110.474 25.6567 108.043 29.1533C106.985 30.6755 105.579 31.7862 103.618 31.9618C103.596 31.964 103.58 32.0156 103.56 32.0441H103.012L103.011 32.0452Z" fill="white"/>
<path d="M104.585 21.8769C102.255 22.4608 99.9973 22.2764 97.8199 21.2447C96.2044 20.4787 94.8193 19.4031 93.5835 18.1245C91.7254 16.2017 90.1242 14.0923 88.9147 11.703C88.4088 10.7043 88.0707 9.64848 88.0093 8.52573C87.8918 6.36035 88.9422 4.81945 90.7037 3.70219C92.8943 2.31385 95.3703 1.79582 97.8923 1.45121C100.723 1.06489 103.565 1.05501 106.411 1.23719C107.336 1.29646 108.263 1.37548 109.192 1.64108C108.582 1.82985 107.972 2.01423 107.363 2.20629C104.673 3.05576 102.08 4.11705 99.8097 5.82916C97.8506 7.30531 96.3492 9.1118 95.8257 11.579C95.2023 14.5126 96.2197 18.8171 99.4003 20.6664C101.01 21.6025 102.755 21.9043 104.584 21.8769H104.585Z" fill="white"/>
</g>
<defs>
<clipPath id="clip0_2233_24714">
<rect width="32" height="30.9222" fill="white" transform="translate(88.0005 1.12305)"/>
</clipPath>
</defs>
</svg>
