<svg width="120" height="34" viewBox="0 0 120 34" fill="none" xmlns="http://www.w3.org/2000/svg">
<path d="M18.9746 22.0084C18.9057 23.6166 19.0985 25.5965 18.8727 27.5665C18.6137 29.8254 17.4844 31.4744 15.4461 32.4264C13.0222 33.5594 10.4427 33.6491 7.84111 33.4696C6.39641 33.3701 4.98476 33.0911 3.664 32.4433C0.905428 31.0902 -0.168804 28.7752 0.0212528 25.7816C0.194783 23.0544 1.59817 21.1881 4.07304 20.1575C5.68438 19.4873 7.38388 19.2783 9.11642 19.2727C10.3298 19.2685 11.5458 19.2377 12.7206 18.8731C13.8802 18.5128 14.3678 17.8285 14.3168 16.6773C14.2741 15.7351 13.8417 15.1658 12.8143 14.8391C11.236 14.3371 9.61084 14.3441 7.98297 14.4787C7.25304 14.539 6.52724 14.6386 5.8469 14.9471C5.1996 15.2415 4.72033 15.6678 4.67075 16.4362C4.64458 16.8288 4.44764 16.9185 4.08681 16.9115C2.94096 16.8905 1.79374 16.8638 0.650643 16.9199C0.0460428 16.9494 -0.0310816 16.6829 0.0129895 16.1922C0.215441 13.894 1.25249 12.1385 3.28251 11.0448C5.46265 9.86843 7.83423 9.73522 10.232 9.7857C11.5651 9.81374 12.8817 9.96938 14.1612 10.3648C17.388 11.3631 18.9388 13.465 18.9732 16.8961C18.9883 18.4777 18.9759 20.0594 18.9759 22.0084H18.9746ZM14.3113 23.3054C12.1615 24.0345 9.98269 23.9756 7.8177 24.0695C7.1346 24.099 6.45838 24.2434 5.8166 24.5084C5.02883 24.8337 4.65285 25.431 4.63219 26.2892C4.61153 27.1697 4.85117 27.8792 5.7078 28.2802C6.49281 28.649 7.31915 28.7668 8.16751 28.8271C9.70174 28.935 11.2277 28.9238 12.7206 28.4948C13.569 28.2508 14.2466 27.7558 14.2975 26.7897C14.3581 25.6582 14.3113 24.5196 14.3113 23.3068V23.3054Z" fill="#EC503C"/>
<path d="M55.5811 21.6366C55.5811 23.1944 55.5811 24.7536 55.5811 26.3114C55.5811 29.9178 53.9436 32.122 50.4813 33.0081C47.4294 33.7891 44.3513 33.8144 41.331 32.8469C38.2378 31.857 36.5934 29.5238 36.6209 26.3436C36.6485 23.1411 38.3783 20.8317 41.4825 19.8699C42.9617 19.4114 44.4821 19.2669 46.0246 19.2669C47.1457 19.2669 48.2709 19.2165 49.352 18.8701C50.5171 18.4971 50.9675 17.911 50.9592 16.8272C50.9509 15.7377 50.513 15.1277 49.3313 14.8066C47.2145 14.2304 45.0743 14.2514 42.9493 14.7786C42.0458 15.003 41.3558 15.5091 41.2828 16.5551C41.2636 16.8356 41.1561 16.9057 40.9041 16.9043C39.6205 16.8973 38.3383 16.8875 37.0548 16.9085C36.5893 16.9155 36.6141 16.6687 36.6402 16.3294C36.8441 13.5727 38.1965 11.6083 40.7361 10.6717C44.3182 9.35224 47.9803 9.37747 51.5679 10.6548C54.2315 11.6041 55.5743 13.7438 55.5784 16.6084C55.5811 18.2826 55.5784 19.9582 55.5784 21.6324L55.5811 21.6366ZM50.9606 25.2149C50.9606 24.727 50.9578 24.2376 50.9606 23.7496C50.9633 23.4734 50.9289 23.3066 50.5722 23.4173C48.7983 23.9656 46.968 24.0119 45.1335 24.0315C44.259 24.0413 43.3969 24.1605 42.5733 24.4718C41.6795 24.8097 41.2925 25.3762 41.276 26.3128C41.2539 27.5299 41.7194 28.1917 42.9479 28.5142C44.9765 29.0484 47.0341 29.033 49.0669 28.5759C50.5722 28.2366 50.9592 27.6449 50.9606 26.0548C50.9606 25.7758 50.9606 25.4967 50.9606 25.2177V25.2149Z" fill="#EC503C"/>
<path d="M77.5534 17.0068C77.3468 17.0068 77.1388 16.99 76.935 17.0096C75.9021 17.1077 75.0165 17.0166 74.3665 15.9636C73.9134 15.2288 73.0237 14.933 72.1946 14.7199C70.6163 14.3146 69.0242 14.3034 67.4294 14.6596C65.376 15.1181 64.1406 16.4039 63.7082 18.4735C63.2647 20.5935 63.2688 22.7248 63.7219 24.8421C64.1709 26.9397 65.4614 28.2213 67.5327 28.6588C69.1716 29.0051 70.8105 28.9939 72.4218 28.4975C73.4575 28.1792 74.3472 27.6099 74.9229 26.6537C75.1253 26.3186 75.3608 26.2484 75.7079 26.2527C76.946 26.2681 78.1841 26.2807 79.4209 26.2484C79.9428 26.2344 80.0943 26.3214 79.9112 26.8864C78.8424 30.1745 76.7091 32.303 73.3735 33.1162C70.8807 33.7234 68.3701 33.7206 65.8869 33.0924C62.4425 32.2217 60.2761 29.9684 59.3727 26.5107C58.4981 23.1623 58.4968 19.7831 59.4622 16.4557C60.5777 12.611 63.2551 10.533 67.0865 9.96653C69.6729 9.58374 72.2511 9.64964 74.7369 10.6241C77.4597 11.6912 79.0931 13.7496 79.9442 16.5272C80.0571 16.8946 80.0255 17.0278 79.6164 17.0138C78.9292 16.99 78.2406 17.0068 77.5534 17.0068Z" fill="#EC503C"/>
<path d="M22.2951 20.6944C22.2951 16.9016 22.2896 13.1087 22.2951 9.31726C22.3033 4.86539 24.2865 2.22371 28.5118 1.05571C30.1576 0.60141 31.842 0.449976 33.5428 0.416324C34.0111 0.407911 34.1226 0.570562 34.113 1.01365C34.0868 2.1536 34.0827 3.29497 34.1144 4.43352C34.1268 4.90465 34.0193 5.07151 33.518 5.07151C32.1642 5.0687 30.8187 5.2005 29.5172 5.61414C27.713 6.18763 26.9335 7.33179 26.9611 9.25836C26.9666 9.70986 27.1195 9.79399 27.5202 9.78978C29.491 9.77156 31.4632 9.801 33.4326 9.76875C33.9766 9.76034 34.1392 9.91317 34.1171 10.4656C34.0744 11.5579 34.0703 12.6544 34.1185 13.7453C34.1447 14.3216 33.9408 14.4309 33.423 14.4239C31.5211 14.3945 29.6177 14.4366 27.7158 14.3987C27.1319 14.3875 26.9528 14.5081 26.9556 15.146C26.9845 21.0323 26.9611 26.92 26.9886 32.8063C26.9914 33.4387 26.822 33.5845 26.2312 33.5564C25.1335 33.506 24.0304 33.5144 22.9313 33.5536C22.4273 33.5719 22.2785 33.4443 22.2813 32.91C22.3061 28.8382 22.2951 24.7663 22.2951 20.6944Z" fill="#EC503C"/>
<g clip-path="url(#clip0_2624_2204)">
<path d="M120 10.713C119.83 11.4385 119.681 12.1694 119.486 12.8883C118.678 15.8625 117.275 18.569 115.675 21.18C114.763 22.6671 113.776 24.1059 112.678 25.4646C112.522 25.6578 112.357 25.8444 112.149 26.0891C112.059 25.8608 112.11 25.7127 112.152 25.5667C112.86 23.0765 113.421 20.5555 113.48 17.9588C113.549 14.9681 113.141 12.0498 110.94 9.81309C108.491 7.32285 105.473 6.30655 102.011 7.27455C100.092 7.81124 98.7482 9.18641 97.6617 10.8107C97.5607 10.9611 97.4608 11.1114 97.3576 11.2596C97.3522 11.2673 97.3225 11.2574 97.2139 11.2453C97.4345 10.7482 97.6232 10.262 97.8614 9.80101C99.0687 7.45674 100.981 5.87853 103.41 4.95333C107.142 3.53206 111.015 3.09744 114.974 3.62535C116.487 3.82729 117.849 4.43421 118.853 5.66232C119.398 6.32741 119.7 7.09895 119.881 7.92647C119.903 8.02525 119.859 8.15366 120.001 8.19975V10.713H120Z" fill="url(#paint0_linear_2624_2204)"/>
<path d="M103.011 32.4615C102.653 32.22 102.219 32.2947 101.827 32.1718C99.8424 31.5539 98.2807 30.3049 96.9209 28.8189C93.7381 25.3398 91.4432 21.3031 89.6598 16.9636C89.618 16.8626 89.5818 16.7606 89.5511 16.6563C89.5423 16.6256 89.561 16.5872 89.5731 16.5147C90.5257 17.384 91.4421 18.262 92.4024 19.0895C94.48 20.8817 96.7299 22.4039 99.3913 23.2095C102.134 24.0392 104.745 23.8197 107.147 22.1427C109.124 20.7632 110.569 19.0127 110.956 16.5641C111.258 14.6501 110.747 12.8886 109.842 11.1874C110.101 11.1018 110.174 11.3257 110.28 11.464C111.739 13.3781 112.447 15.5478 112.313 17.9393C112.072 22.2371 110.474 26.0729 108.043 29.5696C106.985 31.0918 105.579 32.2025 103.618 32.3781C103.596 32.3803 103.579 32.4319 103.56 32.4604H103.012L103.011 32.4615Z" fill="url(#paint1_linear_2624_2204)"/>
<path d="M104.585 22.2929C102.255 22.8768 99.9975 22.6924 97.82 21.6608C96.2045 20.8947 94.8194 19.8191 93.5836 18.5405C91.7256 16.6177 90.1243 14.5083 88.9148 12.119C88.4089 11.1203 88.0709 10.0645 88.0094 8.94175C87.892 6.77637 88.9423 5.23547 90.7038 4.11821C92.8944 2.72986 95.3704 2.21184 97.8924 1.86722C100.723 1.4809 103.565 1.47102 106.411 1.65321C107.336 1.71247 108.263 1.7915 109.192 2.05709C108.582 2.24586 107.972 2.43024 107.363 2.62231C104.673 3.47178 102.081 4.53307 99.8098 6.24518C97.8507 7.72132 96.3494 9.52782 95.8258 11.995C95.2025 14.9286 96.2199 19.2331 99.4004 21.0824C101.01 22.0185 102.756 22.3204 104.584 22.2929H104.585Z" fill="url(#paint2_linear_2624_2204)"/>
</g>
<defs>
<linearGradient id="paint0_linear_2624_2204" x1="108.606" y1="3.40694" x2="108.606" y2="35.092" gradientUnits="userSpaceOnUse">
<stop stop-color="#E44A38"/>
<stop offset="1" stop-color="#931614"/>
</linearGradient>
<linearGradient id="paint1_linear_2624_2204" x1="100.938" y1="11.1688" x2="100.938" y2="32.4615" gradientUnits="userSpaceOnUse">
<stop offset="0.33" stop-color="#F39B1C"/>
<stop offset="0.91" stop-color="#EF6F28"/>
</linearGradient>
<linearGradient id="paint2_linear_2624_2204" x1="88.0006" y1="12.0806" x2="109.193" y2="12.0806" gradientUnits="userSpaceOnUse">
<stop stop-color="#43B953"/>
<stop offset="1" stop-color="#CEDD2A"/>
</linearGradient>
<clipPath id="clip0_2624_2204">
<rect width="32" height="30.9222" fill="white" transform="translate(88.0005 1.53906)"/>
</clipPath>
</defs>
</svg>
