<svg width="16" height="15" viewBox="0 0 16 15" fill="none" xmlns="http://www.w3.org/2000/svg">
<path d="M7.33334 9H5.33334C4.09083 9 3.46958 9 2.97952 9.20299C2.32611 9.47364 1.80698 9.99277 1.53633 10.6462C1.33334 11.1362 1.33334 11.7575 1.33334 13M10.3333 1.19384C11.3106 1.58943 12 2.54754 12 3.66667M7.99993 13.3333L9.34998 13.0633C9.4677 13.0398 9.52655 13.028 9.58144 13.0065C9.63015 12.9874 9.67645 12.9626 9.71937 12.9327C9.76772 12.899 9.81016 12.8565 9.89505 12.7716L14.3334 8.33337C14.7016 7.96516 14.7016 7.36818 14.3334 6.99998C13.9652 6.6318 13.3682 6.6318 13 7L8.56169 11.4383C8.47682 11.5232 8.43438 11.5656 8.40066 11.614C8.37072 11.6569 8.34595 11.7032 8.32684 11.7519C8.30531 11.8068 8.29354 11.8656 8.27 11.9833L7.99993 13.3333ZM9.00001 3.66667C9.00001 5.13943 7.8061 6.33333 6.33334 6.33333C4.86058 6.33333 3.66668 5.13943 3.66668 3.66667C3.66668 2.19391 4.86058 1 6.33334 1C7.8061 1 9.00001 2.19391 9.00001 3.66667Z" stroke="#667085" stroke-width="1.5" stroke-linecap="round" stroke-linejoin="round"/>
</svg>
