<svg width="16" height="16" viewBox="0 0 16 16" fill="none" xmlns="http://www.w3.org/2000/svg">
<path d="M8.00001 10.0002C9.10458 10.0002 10 9.10473 10 8.00016C10 6.89559 9.10458 6.00016 8.00001 6.00016C6.89544 6.00016 6.00001 6.89559 6.00001 8.00016C6.00001 9.10473 6.89544 10.0002 8.00001 10.0002Z" stroke="#667085" stroke-width="1.5" stroke-linecap="round" stroke-linejoin="round"/>
<path d="M12.4849 9.81835C12.4042 10.0011 12.3801 10.2039 12.4158 10.4005C12.4514 10.5971 12.5451 10.7785 12.6849 10.9214L12.7212 10.9577C12.8339 11.0703 12.9233 11.204 12.9843 11.3511C13.0453 11.4983 13.0767 11.656 13.0767 11.8153C13.0767 11.9746 13.0453 12.1323 12.9843 12.2795C12.9233 12.4266 12.8339 12.5603 12.7212 12.6729C12.6087 12.7856 12.475 12.875 12.3278 12.936C12.1807 12.997 12.0229 13.0284 11.8636 13.0284C11.7044 13.0284 11.5466 12.997 11.3995 12.936C11.2523 12.875 11.1186 12.7856 11.0061 12.6729L10.9697 12.6365C10.8269 12.4968 10.6455 12.4031 10.4489 12.3674C10.2522 12.3318 10.0495 12.3559 9.86668 12.4365C9.68742 12.5134 9.53455 12.6409 9.42686 12.8035C9.31918 12.9661 9.26139 13.1567 9.26062 13.3517V13.4547C9.26062 13.7762 9.13291 14.0845 8.90559 14.3118C8.67828 14.5391 8.36997 14.6668 8.0485 14.6668C7.72702 14.6668 7.41871 14.5391 7.1914 14.3118C6.96408 14.0845 6.83637 13.7762 6.83637 13.4547V13.4002C6.83168 13.1996 6.76675 13.005 6.65002 12.8418C6.53328 12.6786 6.37015 12.5543 6.18183 12.485C5.99903 12.4043 5.79626 12.3803 5.59965 12.4159C5.40305 12.4516 5.22163 12.5453 5.0788 12.685L5.04243 12.7214C4.92986 12.8341 4.79618 12.9235 4.64903 12.9845C4.50188 13.0455 4.34415 13.0769 4.18486 13.0769C4.02557 13.0769 3.86784 13.0455 3.72069 12.9845C3.57354 12.9235 3.43986 12.8341 3.32728 12.7214C3.21458 12.6088 3.12518 12.4751 3.06418 12.328C3.00318 12.1808 2.97178 12.0231 2.97178 11.8638C2.97178 11.7045 3.00318 11.5468 3.06418 11.3996C3.12518 11.2525 3.21458 11.1188 3.32728 11.0062L3.36365 10.9699C3.50337 10.827 3.59709 10.6456 3.63274 10.449C3.66839 10.2524 3.64432 10.0496 3.56365 9.86683C3.48682 9.68758 3.35926 9.5347 3.19666 9.42702C3.03406 9.31933 2.84352 9.26155 2.6485 9.26077H2.54546C2.22399 9.26077 1.91568 9.13306 1.68837 8.90575C1.46105 8.67843 1.33334 8.37012 1.33334 8.04865C1.33334 7.72717 1.46105 7.41887 1.68837 7.19155C1.91568 6.96423 2.22399 6.83653 2.54546 6.83653H2.60001C2.80061 6.83183 2.99516 6.7669 3.15837 6.65017C3.32158 6.53344 3.4459 6.37031 3.51516 6.18198C3.59584 5.99918 3.6199 5.79641 3.58426 5.59981C3.54861 5.4032 3.45488 5.22179 3.31516 5.07895L3.2788 5.04259C3.1661 4.93001 3.07669 4.79633 3.0157 4.64918C2.9547 4.50203 2.9233 4.3443 2.9233 4.18501C2.9233 4.02572 2.9547 3.86799 3.0157 3.72084C3.07669 3.57369 3.1661 3.44001 3.2788 3.32744C3.39137 3.21474 3.52505 3.12533 3.6722 3.06433C3.81935 3.00333 3.97708 2.97194 4.13637 2.97194C4.29567 2.97194 4.45339 3.00333 4.60054 3.06433C4.74769 3.12533 4.88138 3.21474 4.99395 3.32744L5.03031 3.3638C5.17315 3.50352 5.35457 3.59725 5.55117 3.63289C5.74777 3.66854 5.95055 3.64448 6.13334 3.5638H6.18183C6.36108 3.48697 6.51396 3.35941 6.62164 3.19681C6.72932 3.03421 6.78711 2.84367 6.78789 2.64865V2.54562C6.78789 2.22414 6.91559 1.91584 7.14291 1.68852C7.37023 1.4612 7.67854 1.3335 8.00001 1.3335C8.32148 1.3335 8.62979 1.4612 8.85711 1.68852C9.08443 1.91584 9.21213 2.22414 9.21213 2.54562V2.60016C9.21291 2.79518 9.2707 2.98572 9.37838 3.14832C9.48606 3.31092 9.63894 3.43849 9.81819 3.51531C10.001 3.59599 10.2038 3.62006 10.4004 3.58441C10.597 3.54876 10.7784 3.45503 10.9212 3.31531L10.9576 3.27895C11.0702 3.16625 11.2038 3.07685 11.351 3.01585C11.4981 2.95485 11.6559 2.92345 11.8152 2.92345C11.9745 2.92345 12.1322 2.95485 12.2793 3.01585C12.4265 3.07685 12.5602 3.16625 12.6727 3.27895C12.7854 3.39152 12.8748 3.52521 12.9358 3.67236C12.9968 3.81951 13.0282 3.97723 13.0282 4.13653C13.0282 4.29582 12.9968 4.45355 12.9358 4.6007C12.8748 4.74785 12.7854 4.88153 12.6727 4.9941L12.6364 5.03047C12.4967 5.1733 12.4029 5.35472 12.3673 5.55132C12.3316 5.74792 12.3557 5.9507 12.4364 6.1335V6.18198C12.5132 6.36124 12.6408 6.51411 12.8034 6.6218C12.966 6.72948 13.1565 6.78726 13.3515 6.78804H13.4546C13.776 6.78804 14.0843 6.91575 14.3117 7.14306C14.539 7.37038 14.6667 7.67869 14.6667 8.00016C14.6667 8.32164 14.539 8.62995 14.3117 8.85726C14.0843 9.08458 13.776 9.21228 13.4546 9.21228H13.4C13.205 9.21306 13.0145 9.27085 12.8519 9.37853C12.6893 9.48621 12.5617 9.63909 12.4849 9.81835Z" stroke="#667085" stroke-width="1.5" stroke-linecap="round" stroke-linejoin="round"/>
</svg>
